<svg xmlns="http://www.w3.org/2000/svg" width="85.374" height="222.669" viewBox="0 0 85.374 222.669">
  <g id="Group_1278" data-name="Group 1278" opacity="0.7">
    <g id="Group_901" data-name="Group 901" transform="translate(0)">
      <g id="Group_898" data-name="Group 898">
        <circle id="Ellipse_175" data-name="Ellipse 175" cx="3.495" cy="3.495" r="3.495" fill="#0e809e"/>
      </g>
      <g id="Group_899" data-name="Group 899" transform="translate(39.192 0.001)">
        <path id="Path_6029" data-name="Path 6029" d="M42.791,14.02A3.494,3.494,0,1,1,39.3,10.525,3.5,3.5,0,0,1,42.791,14.02Z" transform="translate(-35.803 -10.525)" fill="#0e809e"/>
      </g>
      <g id="Group_900" data-name="Group 900" transform="translate(78.384)">
        <circle id="Ellipse_176" data-name="Ellipse 176" cx="3.495" cy="3.495" r="3.495" fill="#0e809e"/>
      </g>
    </g>
    <g id="Group_905" data-name="Group 905" transform="translate(0 35.946)">
      <g id="Group_902" data-name="Group 902" transform="translate(0 0)">
        <circle id="Ellipse_177" data-name="Ellipse 177" cx="3.495" cy="3.495" r="3.495" fill="#0e809e"/>
      </g>
      <g id="Group_903" data-name="Group 903" transform="translate(39.192)">
        <path id="Path_6030" data-name="Path 6030" d="M42.791,36.792A3.494,3.494,0,1,1,39.3,33.3,3.494,3.494,0,0,1,42.791,36.792Z" transform="translate(-35.803 -33.297)" fill="#0e809e"/>
      </g>
      <g id="Group_904" data-name="Group 904" transform="translate(78.384 0)">
        <circle id="Ellipse_178" data-name="Ellipse 178" cx="3.495" cy="3.495" r="3.495" fill="#0e809e"/>
      </g>
    </g>
    <g id="Group_909" data-name="Group 909" transform="translate(0 71.893)">
      <g id="Group_906" data-name="Group 906">
        <circle id="Ellipse_179" data-name="Ellipse 179" cx="3.495" cy="3.495" r="3.495" fill="#0e809e"/>
      </g>
      <g id="Group_907" data-name="Group 907" transform="translate(39.192 0.001)">
        <path id="Path_6031" data-name="Path 6031" d="M42.791,59.565A3.494,3.494,0,1,1,39.3,56.07,3.5,3.5,0,0,1,42.791,59.565Z" transform="translate(-35.803 -56.07)" fill="#0e809e"/>
      </g>
      <g id="Group_908" data-name="Group 908" transform="translate(78.384)">
        <circle id="Ellipse_180" data-name="Ellipse 180" cx="3.495" cy="3.495" r="3.495" fill="#0e809e"/>
      </g>
    </g>
    <g id="Group_913" data-name="Group 913" transform="translate(0 107.84)">
      <g id="Group_910" data-name="Group 910">
        <path id="Path_6032" data-name="Path 6032" d="M17.964,82.337a3.495,3.495,0,1,1-3.495-3.495A3.494,3.494,0,0,1,17.964,82.337Z" transform="translate(-10.974 -78.842)" fill="#0e809e"/>
      </g>
      <g id="Group_911" data-name="Group 911" transform="translate(39.193)">
        <path id="Path_6033" data-name="Path 6033" d="M42.791,82.337A3.494,3.494,0,1,1,39.3,78.842,3.494,3.494,0,0,1,42.791,82.337Z" transform="translate(-35.803 -78.842)" fill="#0e809e"/>
      </g>
      <g id="Group_912" data-name="Group 912" transform="translate(78.384)">
        <path id="Path_6034" data-name="Path 6034" d="M67.621,82.337a3.495,3.495,0,1,1-3.495-3.495A3.494,3.494,0,0,1,67.621,82.337Z" transform="translate(-60.631 -78.842)" fill="#0e809e"/>
      </g>
    </g>
    <g id="Group_917" data-name="Group 917" transform="translate(0 143.786)">
      <g id="Group_914" data-name="Group 914">
        <circle id="Ellipse_181" data-name="Ellipse 181" cx="3.495" cy="3.495" r="3.495" fill="#0e809e"/>
      </g>
      <g id="Group_915" data-name="Group 915" transform="translate(39.192 0.001)">
        <path id="Path_6035" data-name="Path 6035" d="M42.791,105.11a3.494,3.494,0,1,1-3.495-3.495A3.5,3.5,0,0,1,42.791,105.11Z" transform="translate(-35.803 -101.615)" fill="#0e809e"/>
      </g>
      <g id="Group_916" data-name="Group 916" transform="translate(78.384)">
        <circle id="Ellipse_182" data-name="Ellipse 182" cx="3.495" cy="3.495" r="3.495" transform="translate(0)" fill="#0e809e"/>
      </g>
    </g>
    <g id="Group_921" data-name="Group 921" transform="translate(0 179.733)">
      <g id="Group_918" data-name="Group 918">
        <circle id="Ellipse_183" data-name="Ellipse 183" cx="3.495" cy="3.495" r="3.495" fill="#0e809e"/>
      </g>
      <g id="Group_919" data-name="Group 919" transform="translate(39.192)">
        <path id="Path_6036" data-name="Path 6036" d="M42.791,127.882a3.494,3.494,0,1,1-3.495-3.495A3.494,3.494,0,0,1,42.791,127.882Z" transform="translate(-35.803 -124.387)" fill="#0e809e"/>
      </g>
      <g id="Group_920" data-name="Group 920" transform="translate(78.384)">
        <circle id="Ellipse_184" data-name="Ellipse 184" cx="3.495" cy="3.495" r="3.495" fill="#0e809e"/>
      </g>
    </g>
    <g id="Group_925" data-name="Group 925" transform="translate(0 215.679)">
      <g id="Group_922" data-name="Group 922" transform="translate(0 0.001)">
        <circle id="Ellipse_185" data-name="Ellipse 185" cx="3.495" cy="3.495" r="3.495" fill="#0e809e"/>
      </g>
      <g id="Group_923" data-name="Group 923" transform="translate(39.192)">
        <path id="Path_6037" data-name="Path 6037" d="M42.791,150.654a3.494,3.494,0,1,1-3.495-3.495A3.494,3.494,0,0,1,42.791,150.654Z" transform="translate(-35.803 -147.159)" fill="#0e809e"/>
      </g>
      <g id="Group_924" data-name="Group 924" transform="translate(78.384 0.001)">
        <circle id="Ellipse_186" data-name="Ellipse 186" cx="3.495" cy="3.495" r="3.495" fill="#0e809e"/>
      </g>
    </g>
  </g>
</svg>
