<svg xmlns="http://www.w3.org/2000/svg" width="190.402" height="189.438" viewBox="0 0 190.402 189.438">
  <g id="Group_1283" data-name="Group 1283" transform="matrix(1, -0.017, 0.017, 1, -0.573, 1.547)">
    <g id="Group_1195" data-name="Group 1195" transform="translate(31.648 0.001)">
      <path id="Path_6101" data-name="Path 6101" d="M251.828,248.543a94.06,94.06,0,0,0-57.059,23.466l6.089,6.089a85.505,85.505,0,0,1,50.969-20.949Z" transform="translate(-194.769 -248.543)" fill="#33b5e5"/>
    </g>
    <g id="Group_1196" data-name="Group 1196" transform="translate(0 32.799)">
      <path id="Path_6102" data-name="Path 6102" d="M271.09,237.885a85.5,85.5,0,0,1,19.959-49.543l-6.089-6.088a94.064,94.064,0,0,0-22.467,55.631Z" transform="translate(-262.494 -182.254)" fill="#33b5e5"/>
    </g>
    <g id="Group_1197" data-name="Group 1197" transform="translate(0.151 102.339)">
      <path id="Path_6103" data-name="Path 6103" d="M262.381,106.417A94.038,94.038,0,0,0,284.8,159.862l6.09-6.091a85.481,85.481,0,0,1-19.881-47.354Z" transform="translate(-262.381 -106.417)" fill="#33b5e5"/>
    </g>
    <g id="Group_1198" data-name="Group 1198" transform="translate(158.889 102.34)">
      <path id="Path_6104" data-name="Path 6104" d="M103.423,105.279a85.47,85.47,0,0,1-20.752,48.367l6.089,6.089a94.035,94.035,0,0,0,23.289-54.456Z" transform="translate(-82.671 -105.279)" fill="#33b5e5"/>
    </g>
    <g id="Group_1199" data-name="Group 1199" transform="translate(31.76 159.014)">
      <path id="Path_6105" data-name="Path 6105" d="M251.716,90.465a85.515,85.515,0,0,1-50.857-20.854l-6.09,6.091a94.059,94.059,0,0,0,56.947,23.369Z" transform="translate(-194.769 -69.611)" fill="#33b5e5"/>
    </g>
    <g id="Group_1200" data-name="Group 1200" transform="translate(99.343 159.886)">
      <path id="Path_6106" data-name="Path 6106" d="M119.4,98.2a94.092,94.092,0,0,0,56.3-22.509L169.615,69.6a85.515,85.515,0,0,1-50.213,20Z" transform="translate(-119.402 -69.599)" fill="#33b5e5"/>
    </g>
  </g>
</svg>
