<svg xmlns="http://www.w3.org/2000/svg" width="133.565" height="141.129" viewBox="0 0 133.565 141.129">
  <g id="Group_1287" data-name="Group 1287" transform="translate(0.25 0.25)">
    <g id="Group_756" data-name="Group 756" transform="translate(0 0)">
      <ellipse id="Ellipse_73" data-name="Ellipse 73" cx="3.005" cy="3.005" rx="3.005" ry="3.005" transform="translate(0)" fill="none" stroke="#33b5e5" stroke-linecap="round" stroke-linejoin="round" stroke-width="0.5"/>
      <path id="Path_5743" data-name="Path 5743" d="M724.082,199.252a3,3,0,1,1,3-3A3,3,0,0,1,724.082,199.252Z" transform="translate(-721.076 -174.011)" fill="none" stroke="#33b5e5" stroke-linecap="round" stroke-linejoin="round" stroke-width="0.5"/>
      <ellipse id="Ellipse_74" data-name="Ellipse 74" cx="3.005" cy="3.005" rx="3.005" ry="3.005" transform="translate(0 38.463)" fill="none" stroke="#33b5e5" stroke-linecap="round" stroke-linejoin="round" stroke-width="0.5"/>
      <ellipse id="Ellipse_75" data-name="Ellipse 75" cx="3.005" cy="3.005" rx="3.005" ry="3.005" transform="translate(0 57.694)" fill="none" stroke="#33b5e5" stroke-linecap="round" stroke-linejoin="round" stroke-width="0.5"/>
      <ellipse id="Ellipse_76" data-name="Ellipse 76" cx="3.005" cy="3.005" rx="3.005" ry="3.005" transform="translate(0 76.925)" fill="none" stroke="#33b5e5" stroke-linecap="round" stroke-linejoin="round" stroke-width="0.5"/>
      <ellipse id="Ellipse_77" data-name="Ellipse 77" cx="3.005" cy="3.005" rx="3.005" ry="3.005" transform="translate(0 96.157)" fill="none" stroke="#33b5e5" stroke-linecap="round" stroke-linejoin="round" stroke-width="0.5"/>
      <path id="Path_5744" data-name="Path 5744" d="M724.082,243.973a3,3,0,1,1,3-3.006A3.006,3.006,0,0,1,724.082,243.973Z" transform="translate(-721.076 -122.575)" fill="none" stroke="#33b5e5" stroke-linecap="round" stroke-linejoin="round" stroke-width="0.5"/>
      <ellipse id="Ellipse_78" data-name="Ellipse 78" cx="3.005" cy="3.005" rx="3.005" ry="3.005" transform="translate(0 134.619)" fill="none" stroke="#33b5e5" stroke-linecap="round" stroke-linejoin="round" stroke-width="0.5"/>
    </g>
    <g id="Group_757" data-name="Group 757" transform="translate(18.151 0)">
      <ellipse id="Ellipse_79" data-name="Ellipse 79" cx="3.005" cy="3.005" rx="3.005" ry="3.005" fill="none" stroke="#33b5e5" stroke-linecap="round" stroke-linejoin="round" stroke-width="0.5"/>
      <path id="Path_5745" data-name="Path 5745" d="M732.522,199.252a3,3,0,1,1,3.006-3A3,3,0,0,1,732.522,199.252Z" transform="translate(-729.518 -174.011)" fill="none" stroke="#33b5e5" stroke-linecap="round" stroke-linejoin="round" stroke-width="0.5"/>
      <ellipse id="Ellipse_80" data-name="Ellipse 80" cx="3.005" cy="3.005" rx="3.005" ry="3.005" transform="translate(0 38.463)" fill="none" stroke="#33b5e5" stroke-linecap="round" stroke-linejoin="round" stroke-width="0.5"/>
      <ellipse id="Ellipse_81" data-name="Ellipse 81" cx="3.005" cy="3.005" rx="3.005" ry="3.005" transform="translate(0 57.694)" fill="none" stroke="#33b5e5" stroke-linecap="round" stroke-linejoin="round" stroke-width="0.5"/>
      <ellipse id="Ellipse_82" data-name="Ellipse 82" cx="3.005" cy="3.005" rx="3.005" ry="3.005" transform="translate(0 76.925)" fill="none" stroke="#33b5e5" stroke-linecap="round" stroke-linejoin="round" stroke-width="0.5"/>
      <ellipse id="Ellipse_83" data-name="Ellipse 83" cx="3.005" cy="3.005" rx="3.005" ry="3.005" transform="translate(0 96.157)" fill="none" stroke="#33b5e5" stroke-linecap="round" stroke-linejoin="round" stroke-width="0.5"/>
      <path id="Path_5746" data-name="Path 5746" d="M732.522,243.973a3,3,0,1,1,3.006-3.006A3.006,3.006,0,0,1,732.522,243.973Z" transform="translate(-729.518 -122.575)" fill="none" stroke="#33b5e5" stroke-linecap="round" stroke-linejoin="round" stroke-width="0.5"/>
    </g>
    <g id="Group_758" data-name="Group 758" transform="translate(36.301 0)">
      <ellipse id="Ellipse_84" data-name="Ellipse 84" cx="3.005" cy="3.005" rx="3.005" ry="3.005" transform="translate(0.001)" fill="none" stroke="#33b5e5" stroke-linecap="round" stroke-linejoin="round" stroke-width="0.5"/>
      <path id="Path_5747" data-name="Path 5747" d="M740.965,199.252a3,3,0,1,1,3-3A3,3,0,0,1,740.965,199.252Z" transform="translate(-737.959 -174.011)" fill="none" stroke="#33b5e5" stroke-linecap="round" stroke-linejoin="round" stroke-width="0.5"/>
      <ellipse id="Ellipse_85" data-name="Ellipse 85" cx="3.005" cy="3.005" rx="3.005" ry="3.005" transform="translate(0.001 38.463)" fill="none" stroke="#33b5e5" stroke-linecap="round" stroke-linejoin="round" stroke-width="0.5"/>
      <ellipse id="Ellipse_86" data-name="Ellipse 86" cx="3.005" cy="3.005" rx="3.005" ry="3.005" transform="translate(0.001 57.694)" fill="none" stroke="#33b5e5" stroke-linecap="round" stroke-linejoin="round" stroke-width="0.5"/>
      <ellipse id="Ellipse_87" data-name="Ellipse 87" cx="3.005" cy="3.005" rx="3.005" ry="3.005" transform="translate(0.001 76.925)" fill="none" stroke="#33b5e5" stroke-linecap="round" stroke-linejoin="round" stroke-width="0.5"/>
      <ellipse id="Ellipse_88" data-name="Ellipse 88" cx="3.005" cy="3.005" rx="3.005" ry="3.005" transform="translate(0.001 96.157)" fill="none" stroke="#33b5e5" stroke-linecap="round" stroke-linejoin="round" stroke-width="0.5"/>
    </g>
    <g id="Group_759" data-name="Group 759" transform="translate(54.453 0)">
      <ellipse id="Ellipse_89" data-name="Ellipse 89" cx="3.005" cy="3.005" rx="3.005" ry="3.005" fill="none" stroke="#33b5e5" stroke-linecap="round" stroke-linejoin="round" stroke-width="0.5"/>
      <path id="Path_5748" data-name="Path 5748" d="M749.4,199.252a3,3,0,1,1,3.006-3A3,3,0,0,1,749.4,199.252Z" transform="translate(-746.401 -174.011)" fill="none" stroke="#33b5e5" stroke-linecap="round" stroke-linejoin="round" stroke-width="0.5"/>
      <ellipse id="Ellipse_90" data-name="Ellipse 90" cx="3.005" cy="3.005" rx="3.005" ry="3.005" transform="translate(0 38.463)" fill="none" stroke="#33b5e5" stroke-linecap="round" stroke-linejoin="round" stroke-width="0.5"/>
      <ellipse id="Ellipse_91" data-name="Ellipse 91" cx="3.005" cy="3.005" rx="3.005" ry="3.005" transform="translate(0 57.694)" fill="none" stroke="#33b5e5" stroke-linecap="round" stroke-linejoin="round" stroke-width="0.5"/>
      <ellipse id="Ellipse_92" data-name="Ellipse 92" cx="3.005" cy="3.005" rx="3.005" ry="3.005" transform="translate(0 76.925)" fill="none" stroke="#33b5e5" stroke-linecap="round" stroke-linejoin="round" stroke-width="0.5"/>
    </g>
    <g id="Group_760" data-name="Group 760" transform="translate(72.603 0)">
      <ellipse id="Ellipse_93" data-name="Ellipse 93" cx="3.005" cy="3.005" rx="3.005" ry="3.005" fill="none" stroke="#33b5e5" stroke-linecap="round" stroke-linejoin="round" stroke-width="0.5"/>
      <path id="Path_5749" data-name="Path 5749" d="M757.847,199.252a3,3,0,1,1,3.006-3A3,3,0,0,1,757.847,199.252Z" transform="translate(-754.842 -174.011)" fill="none" stroke="#33b5e5" stroke-linecap="round" stroke-linejoin="round" stroke-width="0.5"/>
      <ellipse id="Ellipse_94" data-name="Ellipse 94" cx="3.005" cy="3.005" rx="3.005" ry="3.005" transform="translate(0 38.463)" fill="none" stroke="#33b5e5" stroke-linecap="round" stroke-linejoin="round" stroke-width="0.5"/>
      <ellipse id="Ellipse_95" data-name="Ellipse 95" cx="3.005" cy="3.005" rx="3.005" ry="3.005" transform="translate(0 57.694)" fill="none" stroke="#33b5e5" stroke-linecap="round" stroke-linejoin="round" stroke-width="0.5"/>
    </g>
    <g id="Group_761" data-name="Group 761" transform="translate(90.754 0)">
      <path id="Path_5750" data-name="Path 5750" d="M766.29,190.308a3,3,0,1,1,3-3.006A3.006,3.006,0,0,1,766.29,190.308Z" transform="translate(-763.284 -184.298)" fill="none" stroke="#33b5e5" stroke-linecap="round" stroke-linejoin="round" stroke-width="0.5"/>
      <path id="Path_5751" data-name="Path 5751" d="M766.29,199.252a3,3,0,1,1,3-3A3,3,0,0,1,766.29,199.252Z" transform="translate(-763.284 -174.011)" fill="none" stroke="#33b5e5" stroke-linecap="round" stroke-linejoin="round" stroke-width="0.5"/>
      <path id="Path_5752" data-name="Path 5752" d="M766.29,208.2a3,3,0,1,1,3-3A3,3,0,0,1,766.29,208.2Z" transform="translate(-763.284 -163.724)" fill="none" stroke="#33b5e5" stroke-linecap="round" stroke-linejoin="round" stroke-width="0.5"/>
    </g>
    <g id="Group_762" data-name="Group 762" transform="translate(108.905 0)">
      <path id="Path_5753" data-name="Path 5753" d="M774.73,190.308a3,3,0,1,1,3.006-3.006A3,3,0,0,1,774.73,190.308Z" transform="translate(-771.726 -184.298)" fill="none" stroke="#33b5e5" stroke-linecap="round" stroke-linejoin="round" stroke-width="0.5"/>
      <path id="Path_5754" data-name="Path 5754" d="M774.73,199.252a3,3,0,1,1,3.006-3A3,3,0,0,1,774.73,199.252Z" transform="translate(-771.726 -174.011)" fill="none" stroke="#33b5e5" stroke-linecap="round" stroke-linejoin="round" stroke-width="0.5"/>
    </g>
    <g id="Group_763" data-name="Group 763" transform="translate(127.055 0)">
      <path id="Path_5755" data-name="Path 5755" d="M783.173,190.308a3,3,0,1,1,3-3.006A3.006,3.006,0,0,1,783.173,190.308Z" transform="translate(-780.167 -184.298)" fill="none" stroke="#33b5e5" stroke-linecap="round" stroke-linejoin="round" stroke-width="0.5"/>
    </g>
  </g>
</svg>
