<svg xmlns="http://www.w3.org/2000/svg" width="208.132" height="69.677" viewBox="0 0 208.132 69.677">
  <g id="Group_1284" data-name="Group 1284" transform="translate(0.679 0.679)">
    <path id="Path_5546" data-name="Path 5546" d="M757.638,93.994l34.46,18.963,34.46-18.963,34.462,18.963L895.48,93.994l34.466,18.963,34.465-18.963" transform="translate(-757.638 -93.994)" fill="none" stroke="#33b5e5" stroke-linecap="round" stroke-linejoin="round" stroke-width="1"/>
    <path id="Path_5547" data-name="Path 5547" d="M757.638,101.673l34.46,18.963,34.46-18.963,34.462,18.963,34.461-18.963,34.466,18.963,34.465-18.963" transform="translate(-757.638 -85.162)" fill="none" stroke="#33b5e5" stroke-linecap="round" stroke-linejoin="round" stroke-width="1"/>
    <path id="Path_5548" data-name="Path 5548" d="M757.638,109.352l34.46,18.963,34.46-18.963,34.462,18.963,34.461-18.963,34.466,18.963,34.465-18.963" transform="translate(-757.638 -76.329)" fill="none" stroke="#33b5e5" stroke-linecap="round" stroke-linejoin="round" stroke-width="1"/>
    <path id="Path_5549" data-name="Path 5549" d="M757.638,117.032l34.46,18.963,34.46-18.963,34.462,18.963,34.461-18.963,34.466,18.963,34.465-18.963" transform="translate(-757.638 -67.497)" fill="none" stroke="#33b5e5" stroke-linecap="round" stroke-linejoin="round" stroke-width="1"/>
  </g>
</svg>
