<svg id="Group_1288" data-name="Group 1288" xmlns="http://www.w3.org/2000/svg" width="521.073" height="169.531" viewBox="0 0 521.073 169.531">
  <g id="Group_947" data-name="Group 947" transform="translate(0)">
    <g id="Group_946" data-name="Group 946">
      <g id="Group_945" data-name="Group 945">
        <path id="Path_6041" data-name="Path 6041" d="M100.342,97.475H94.01V71.858h6.332Zm0-51.234H94.01V20.625h6.332Zm0-51.232H94.01V-30.609h6.332Z" transform="translate(-94.01 30.609)" fill="#33b5e5"/>
      </g>
    </g>
  </g>
  <g id="Group_950" data-name="Group 950" transform="translate(0 153.701)">
    <g id="Group_949" data-name="Group 949" transform="translate(0 0)">
      <g id="Group_948" data-name="Group 948">
        <path id="Path_6042" data-name="Path 6042" d="M109.84,58.042H94.01V42.212h6.332v9.5h9.5Z" transform="translate(-94.01 -42.212)" fill="#33b5e5"/>
      </g>
    </g>
  </g>
  <g id="Group_953" data-name="Group 953" transform="translate(41.093 163.199)">
    <g id="Group_952" data-name="Group 952">
      <g id="Group_951" data-name="Group 951">
        <path id="Path_6043" data-name="Path 6043" d="M593.459,53.044H568.2V46.712h25.263Zm-50.525,0h-25.26V46.712h25.26Zm-50.523,0H467.149V46.712h25.263Zm-50.525,0h-25.26V46.712h25.26Zm-50.523,0H366.1V46.712h25.263Zm-50.525,0H315.575V46.712h25.263Zm-50.525,0H265.05V46.712h25.263Zm-50.525,0h-25.26V46.712h25.26Zm-50.523,0H164V46.712h25.263Zm-50.525,0h-25.26V46.712h25.26Z" transform="translate(-113.479 -46.712)" fill="#33b5e5"/>
      </g>
    </g>
  </g>
</svg>
