<svg xmlns="http://www.w3.org/2000/svg" width="243.559" height="257.375" viewBox="0 0 243.559 257.375">
  <g id="Group_764" data-name="Group 764" transform="translate(0.25 0.25)">
    <g id="Group_756" data-name="Group 756" transform="translate(0 0)">
      <ellipse id="Ellipse_73" data-name="Ellipse 73" cx="5.489" cy="5.489" rx="5.489" ry="5.489" transform="translate(0.001 245.898)" fill="none" stroke="#33b5e5" stroke-linecap="round" stroke-linejoin="round" stroke-width="0.5"/>
      <path id="Path_5743" data-name="Path 5743" d="M726.567,193.242a5.489,5.489,0,1,0,5.487,5.487A5.488,5.488,0,0,0,726.567,193.242Z" transform="translate(-721.076 17.528)" fill="none" stroke="#33b5e5" stroke-linecap="round" stroke-linejoin="round" stroke-width="0.5"/>
      <ellipse id="Ellipse_74" data-name="Ellipse 74" cx="5.489" cy="5.489" rx="5.489" ry="5.489" transform="translate(0.001 175.641)" fill="none" stroke="#33b5e5" stroke-linecap="round" stroke-linejoin="round" stroke-width="0.5"/>
      <ellipse id="Ellipse_75" data-name="Ellipse 75" cx="5.489" cy="5.489" rx="5.489" ry="5.489" transform="translate(0.001 140.513)" fill="none" stroke="#33b5e5" stroke-linecap="round" stroke-linejoin="round" stroke-width="0.5"/>
      <ellipse id="Ellipse_76" data-name="Ellipse 76" cx="5.489" cy="5.489" rx="5.489" ry="5.489" transform="translate(0.001 105.385)" fill="none" stroke="#33b5e5" stroke-linecap="round" stroke-linejoin="round" stroke-width="0.5"/>
      <ellipse id="Ellipse_77" data-name="Ellipse 77" cx="5.489" cy="5.489" rx="5.489" ry="5.489" transform="translate(0.001 70.256)" fill="none" stroke="#33b5e5" stroke-linecap="round" stroke-linejoin="round" stroke-width="0.5"/>
      <path id="Path_5744" data-name="Path 5744" d="M726.567,237.963a5.489,5.489,0,1,0,5.487,5.491A5.491,5.491,0,0,0,726.567,237.963Z" transform="translate(-721.076 -202.835)" fill="none" stroke="#33b5e5" stroke-linecap="round" stroke-linejoin="round" stroke-width="0.5"/>
      <ellipse id="Ellipse_78" data-name="Ellipse 78" cx="5.489" cy="5.489" rx="5.489" ry="5.489" transform="translate(0.001 0)" fill="none" stroke="#33b5e5" stroke-linecap="round" stroke-linejoin="round" stroke-width="0.5"/>
    </g>
    <g id="Group_757" data-name="Group 757" transform="translate(33.155 35.128)">
      <ellipse id="Ellipse_79" data-name="Ellipse 79" cx="5.489" cy="5.489" rx="5.489" ry="5.489" transform="translate(0 210.77)" fill="none" stroke="#33b5e5" stroke-linecap="round" stroke-linejoin="round" stroke-width="0.5"/>
      <path id="Path_5745" data-name="Path 5745" d="M735,193.242a5.489,5.489,0,1,0,5.491,5.487A5.487,5.487,0,0,0,735,193.242Z" transform="translate(-729.517 -17.6)" fill="none" stroke="#33b5e5" stroke-linecap="round" stroke-linejoin="round" stroke-width="0.5"/>
      <ellipse id="Ellipse_80" data-name="Ellipse 80" cx="5.489" cy="5.489" rx="5.489" ry="5.489" transform="translate(0 140.513)" fill="none" stroke="#33b5e5" stroke-linecap="round" stroke-linejoin="round" stroke-width="0.5"/>
      <ellipse id="Ellipse_81" data-name="Ellipse 81" cx="5.489" cy="5.489" rx="5.489" ry="5.489" transform="translate(0 105.385)" fill="none" stroke="#33b5e5" stroke-linecap="round" stroke-linejoin="round" stroke-width="0.5"/>
      <ellipse id="Ellipse_82" data-name="Ellipse 82" cx="5.489" cy="5.489" rx="5.489" ry="5.489" transform="translate(0 70.257)" fill="none" stroke="#33b5e5" stroke-linecap="round" stroke-linejoin="round" stroke-width="0.5"/>
      <ellipse id="Ellipse_83" data-name="Ellipse 83" cx="5.489" cy="5.489" rx="5.489" ry="5.489" transform="translate(0 35.129)" fill="none" stroke="#33b5e5" stroke-linecap="round" stroke-linejoin="round" stroke-width="0.5"/>
      <path id="Path_5746" data-name="Path 5746" d="M735,237.963a5.489,5.489,0,1,0,5.491,5.491A5.49,5.49,0,0,0,735,237.963Z" transform="translate(-729.517 -237.963)" fill="none" stroke="#33b5e5" stroke-linecap="round" stroke-linejoin="round" stroke-width="0.5"/>
    </g>
    <g id="Group_758" data-name="Group 758" transform="translate(66.308 70.256)">
      <ellipse id="Ellipse_84" data-name="Ellipse 84" cx="5.489" cy="5.489" rx="5.489" ry="5.489" transform="translate(0.002 175.641)" fill="none" stroke="#33b5e5" stroke-linecap="round" stroke-linejoin="round" stroke-width="0.5"/>
      <path id="Path_5747" data-name="Path 5747" d="M743.45,193.242a5.489,5.489,0,1,0,5.487,5.487A5.488,5.488,0,0,0,743.45,193.242Z" transform="translate(-737.959 -52.729)" fill="none" stroke="#33b5e5" stroke-linecap="round" stroke-linejoin="round" stroke-width="0.5"/>
      <ellipse id="Ellipse_85" data-name="Ellipse 85" cx="5.489" cy="5.489" rx="5.489" ry="5.489" transform="translate(0.002 105.385)" fill="none" stroke="#33b5e5" stroke-linecap="round" stroke-linejoin="round" stroke-width="0.5"/>
      <ellipse id="Ellipse_86" data-name="Ellipse 86" cx="5.489" cy="5.489" rx="5.489" ry="5.489" transform="translate(0.002 70.257)" fill="none" stroke="#33b5e5" stroke-linecap="round" stroke-linejoin="round" stroke-width="0.5"/>
      <ellipse id="Ellipse_87" data-name="Ellipse 87" cx="5.489" cy="5.489" rx="5.489" ry="5.489" transform="translate(0.002 35.128)" fill="none" stroke="#33b5e5" stroke-linecap="round" stroke-linejoin="round" stroke-width="0.5"/>
      <ellipse id="Ellipse_88" data-name="Ellipse 88" cx="5.489" cy="5.489" rx="5.489" ry="5.489" transform="translate(0.002 0)" fill="none" stroke="#33b5e5" stroke-linecap="round" stroke-linejoin="round" stroke-width="0.5"/>
    </g>
    <g id="Group_759" data-name="Group 759" transform="translate(99.465 105.385)">
      <ellipse id="Ellipse_89" data-name="Ellipse 89" cx="5.489" cy="5.489" rx="5.489" ry="5.489" transform="translate(0 140.513)" fill="none" stroke="#33b5e5" stroke-linecap="round" stroke-linejoin="round" stroke-width="0.5"/>
      <path id="Path_5748" data-name="Path 5748" d="M751.887,193.242a5.489,5.489,0,1,0,5.491,5.487A5.487,5.487,0,0,0,751.887,193.242Z" transform="translate(-746.401 -87.857)" fill="none" stroke="#33b5e5" stroke-linecap="round" stroke-linejoin="round" stroke-width="0.5"/>
      <ellipse id="Ellipse_90" data-name="Ellipse 90" cx="5.489" cy="5.489" rx="5.489" ry="5.489" transform="translate(0 70.257)" fill="none" stroke="#33b5e5" stroke-linecap="round" stroke-linejoin="round" stroke-width="0.5"/>
      <ellipse id="Ellipse_91" data-name="Ellipse 91" cx="5.489" cy="5.489" rx="5.489" ry="5.489" transform="translate(0 35.128)" fill="none" stroke="#33b5e5" stroke-linecap="round" stroke-linejoin="round" stroke-width="0.5"/>
      <ellipse id="Ellipse_92" data-name="Ellipse 92" cx="5.489" cy="5.489" rx="5.489" ry="5.489" transform="translate(0 0)" fill="none" stroke="#33b5e5" stroke-linecap="round" stroke-linejoin="round" stroke-width="0.5"/>
    </g>
    <g id="Group_760" data-name="Group 760" transform="translate(132.619 140.513)">
      <ellipse id="Ellipse_93" data-name="Ellipse 93" cx="5.489" cy="5.489" rx="5.489" ry="5.489" transform="translate(0 105.385)" fill="none" stroke="#33b5e5" stroke-linecap="round" stroke-linejoin="round" stroke-width="0.5"/>
      <path id="Path_5749" data-name="Path 5749" d="M760.33,193.242a5.489,5.489,0,1,0,5.491,5.487A5.485,5.485,0,0,0,760.33,193.242Z" transform="translate(-754.841 -122.985)" fill="none" stroke="#33b5e5" stroke-linecap="round" stroke-linejoin="round" stroke-width="0.5"/>
      <ellipse id="Ellipse_94" data-name="Ellipse 94" cx="5.489" cy="5.489" rx="5.489" ry="5.489" transform="translate(0 35.128)" fill="none" stroke="#33b5e5" stroke-linecap="round" stroke-linejoin="round" stroke-width="0.5"/>
      <ellipse id="Ellipse_95" data-name="Ellipse 95" cx="5.489" cy="5.489" rx="5.489" ry="5.489" transform="translate(0 0)" fill="none" stroke="#33b5e5" stroke-linecap="round" stroke-linejoin="round" stroke-width="0.5"/>
    </g>
    <g id="Group_761" data-name="Group 761" transform="translate(165.773 175.642)">
      <path id="Path_5750" data-name="Path 5750" d="M768.775,184.3a5.489,5.489,0,1,0,5.487,5.491A5.491,5.491,0,0,0,768.775,184.3Z" transform="translate(-763.284 -114.043)" fill="none" stroke="#33b5e5" stroke-linecap="round" stroke-linejoin="round" stroke-width="0.5"/>
      <path id="Path_5751" data-name="Path 5751" d="M768.775,193.242a5.489,5.489,0,1,0,5.487,5.487A5.488,5.488,0,0,0,768.775,193.242Z" transform="translate(-763.284 -158.114)" fill="none" stroke="#33b5e5" stroke-linecap="round" stroke-linejoin="round" stroke-width="0.5"/>
      <path id="Path_5752" data-name="Path 5752" d="M768.775,202.186a5.489,5.489,0,1,0,5.487,5.487A5.488,5.488,0,0,0,768.775,202.186Z" transform="translate(-763.284 -202.186)" fill="none" stroke="#33b5e5" stroke-linecap="round" stroke-linejoin="round" stroke-width="0.5"/>
    </g>
    <g id="Group_762" data-name="Group 762" transform="translate(198.929 210.77)">
      <path id="Path_5753" data-name="Path 5753" d="M777.213,184.3a5.489,5.489,0,1,0,5.491,5.491A5.488,5.488,0,0,0,777.213,184.3Z" transform="translate(-771.726 -149.17)" fill="none" stroke="#33b5e5" stroke-linecap="round" stroke-linejoin="round" stroke-width="0.5"/>
      <path id="Path_5754" data-name="Path 5754" d="M777.213,193.242a5.489,5.489,0,1,0,5.491,5.487A5.484,5.484,0,0,0,777.213,193.242Z" transform="translate(-771.726 -193.242)" fill="none" stroke="#33b5e5" stroke-linecap="round" stroke-linejoin="round" stroke-width="0.5"/>
    </g>
    <g id="Group_763" data-name="Group 763" transform="translate(232.081 245.898)">
      <path id="Path_5755" data-name="Path 5755" d="M785.658,184.3a5.489,5.489,0,1,0,5.487,5.491A5.491,5.491,0,0,0,785.658,184.3Z" transform="translate(-780.167 -184.298)" fill="none" stroke="#33b5e5" stroke-linecap="round" stroke-linejoin="round" stroke-width="0.5"/>
    </g>
  </g>
</svg>
