<svg xmlns="http://www.w3.org/2000/svg" width="216.393" height="237.419" viewBox="0 0 216.393 237.419">
  <g id="Group_1279" data-name="Group 1279" opacity="0.7">
    <g id="Group_863" data-name="Group 863" transform="translate(125.364)">
      <g id="Group_860" data-name="Group 860" transform="translate(0 0.001)">
        <path id="Path_6017" data-name="Path 6017" d="M692.394,352.139a3.726,3.726,0,1,1-3.726-3.726A3.727,3.727,0,0,1,692.394,352.139Z" transform="translate(-684.941 -348.413)" fill="#0e809e"/>
      </g>
      <g id="Group_861" data-name="Group 861" transform="translate(41.788)">
        <circle id="Ellipse_157" data-name="Ellipse 157" cx="3.726" cy="3.726" r="3.726" fill="#0e809e"/>
      </g>
      <g id="Group_862" data-name="Group 862" transform="translate(83.576)">
        <circle id="Ellipse_158" data-name="Ellipse 158" cx="3.726" cy="3.726" r="3.726" fill="#0e809e"/>
      </g>
    </g>
    <g id="Group_867" data-name="Group 867" transform="translate(125.364 38.328)">
      <g id="Group_864" data-name="Group 864">
        <path id="Path_6018" data-name="Path 6018" d="M692.394,374.911a3.726,3.726,0,1,1-3.726-3.726A3.726,3.726,0,0,1,692.394,374.911Z" transform="translate(-684.941 -371.185)" fill="#0e809e"/>
      </g>
      <g id="Group_865" data-name="Group 865" transform="translate(41.788)">
        <circle id="Ellipse_159" data-name="Ellipse 159" cx="3.726" cy="3.726" r="3.726" fill="#0e809e"/>
      </g>
      <g id="Group_866" data-name="Group 866" transform="translate(83.576)">
        <circle id="Ellipse_160" data-name="Ellipse 160" cx="3.726" cy="3.726" r="3.726" fill="#0e809e"/>
      </g>
    </g>
    <g id="Group_871" data-name="Group 871" transform="translate(125.364 76.656)">
      <g id="Group_868" data-name="Group 868" transform="translate(0 0.001)">
        <path id="Path_6019" data-name="Path 6019" d="M692.394,397.684a3.726,3.726,0,1,1-3.726-3.726A3.727,3.727,0,0,1,692.394,397.684Z" transform="translate(-684.941 -393.958)" fill="#0e809e"/>
      </g>
      <g id="Group_869" data-name="Group 869" transform="translate(41.788)">
        <circle id="Ellipse_161" data-name="Ellipse 161" cx="3.726" cy="3.726" r="3.726" fill="#0e809e"/>
      </g>
      <g id="Group_870" data-name="Group 870" transform="translate(83.576)">
        <circle id="Ellipse_162" data-name="Ellipse 162" cx="3.726" cy="3.726" r="3.726" fill="#0e809e"/>
      </g>
    </g>
    <g id="Group_875" data-name="Group 875" transform="translate(125.364 114.983)">
      <g id="Group_872" data-name="Group 872">
        <path id="Path_6020" data-name="Path 6020" d="M692.394,420.456a3.726,3.726,0,1,1-3.726-3.726A3.726,3.726,0,0,1,692.394,420.456Z" transform="translate(-684.941 -416.73)" fill="#0e809e"/>
      </g>
      <g id="Group_873" data-name="Group 873" transform="translate(41.787)">
        <path id="Path_6021" data-name="Path 6021" d="M717.222,420.456a3.726,3.726,0,1,1-3.726-3.726A3.726,3.726,0,0,1,717.222,420.456Z" transform="translate(-709.769 -416.73)" fill="#0e809e"/>
      </g>
      <g id="Group_874" data-name="Group 874" transform="translate(83.577)">
        <path id="Path_6022" data-name="Path 6022" d="M742.051,420.456a3.726,3.726,0,1,1-3.726-3.726A3.726,3.726,0,0,1,742.051,420.456Z" transform="translate(-734.598 -416.73)" fill="#0e809e"/>
      </g>
    </g>
    <g id="Group_882" data-name="Group 882" transform="translate(0 153.31)">
      <g id="Group_876" data-name="Group 876">
        <path id="Path_6023" data-name="Path 6023" d="M617.909,443.228a3.726,3.726,0,1,1-3.726-3.726A3.726,3.726,0,0,1,617.909,443.228Z" transform="translate(-610.456 -439.502)" fill="#0e809e"/>
      </g>
      <g id="Group_877" data-name="Group 877" transform="translate(41.788 0.001)">
        <circle id="Ellipse_163" data-name="Ellipse 163" cx="3.726" cy="3.726" r="3.726" fill="#0e809e"/>
      </g>
      <g id="Group_878" data-name="Group 878" transform="translate(83.576 0.001)">
        <circle id="Ellipse_164" data-name="Ellipse 164" cx="3.726" cy="3.726" r="3.726" fill="#0e809e"/>
      </g>
      <g id="Group_879" data-name="Group 879" transform="translate(125.364)">
        <path id="Path_6024" data-name="Path 6024" d="M692.394,443.228a3.726,3.726,0,1,1-3.726-3.726A3.726,3.726,0,0,1,692.394,443.228Z" transform="translate(-684.941 -439.502)" fill="#0e809e"/>
      </g>
      <g id="Group_880" data-name="Group 880" transform="translate(167.152 0.001)">
        <circle id="Ellipse_165" data-name="Ellipse 165" cx="3.726" cy="3.726" r="3.726" fill="#0e809e"/>
      </g>
      <g id="Group_881" data-name="Group 881" transform="translate(208.94 0.001)">
        <circle id="Ellipse_166" data-name="Ellipse 166" cx="3.726" cy="3.726" r="3.726" fill="#0e809e"/>
      </g>
    </g>
    <g id="Group_889" data-name="Group 889" transform="translate(0 191.639)">
      <g id="Group_883" data-name="Group 883" transform="translate(0 0)">
        <path id="Path_6025" data-name="Path 6025" d="M617.909,466a3.726,3.726,0,1,1-3.726-3.726A3.726,3.726,0,0,1,617.909,466Z" transform="translate(-610.456 -462.275)" fill="#0e809e"/>
      </g>
      <g id="Group_884" data-name="Group 884" transform="translate(41.788)">
        <circle id="Ellipse_167" data-name="Ellipse 167" cx="3.726" cy="3.726" r="3.726" fill="#0e809e"/>
      </g>
      <g id="Group_885" data-name="Group 885" transform="translate(83.576)">
        <circle id="Ellipse_168" data-name="Ellipse 168" cx="3.726" cy="3.726" r="3.726" fill="#0e809e"/>
      </g>
      <g id="Group_886" data-name="Group 886" transform="translate(125.364 0)">
        <path id="Path_6026" data-name="Path 6026" d="M692.394,466a3.726,3.726,0,1,1-3.726-3.726A3.726,3.726,0,0,1,692.394,466Z" transform="translate(-684.941 -462.275)" fill="#0e809e"/>
      </g>
      <g id="Group_887" data-name="Group 887" transform="translate(167.152)">
        <circle id="Ellipse_169" data-name="Ellipse 169" cx="3.726" cy="3.726" r="3.726" fill="#0e809e"/>
      </g>
      <g id="Group_888" data-name="Group 888" transform="translate(208.94)">
        <circle id="Ellipse_170" data-name="Ellipse 170" cx="3.726" cy="3.726" r="3.726" fill="#0e809e"/>
      </g>
    </g>
    <g id="Group_896" data-name="Group 896" transform="translate(0 229.966)">
      <g id="Group_890" data-name="Group 890">
        <path id="Path_6027" data-name="Path 6027" d="M617.909,488.773a3.726,3.726,0,1,1-3.726-3.726A3.726,3.726,0,0,1,617.909,488.773Z" transform="translate(-610.456 -485.047)" fill="#0e809e"/>
      </g>
      <g id="Group_891" data-name="Group 891" transform="translate(41.788 0.001)">
        <circle id="Ellipse_171" data-name="Ellipse 171" cx="3.726" cy="3.726" r="3.726" fill="#0e809e"/>
      </g>
      <g id="Group_892" data-name="Group 892" transform="translate(83.576 0.001)">
        <circle id="Ellipse_172" data-name="Ellipse 172" cx="3.726" cy="3.726" r="3.726" fill="#0e809e"/>
      </g>
      <g id="Group_893" data-name="Group 893" transform="translate(125.364)">
        <path id="Path_6028" data-name="Path 6028" d="M692.394,488.773a3.726,3.726,0,1,1-3.726-3.726A3.726,3.726,0,0,1,692.394,488.773Z" transform="translate(-684.941 -485.047)" fill="#0e809e"/>
      </g>
      <g id="Group_894" data-name="Group 894" transform="translate(167.152 0.001)">
        <circle id="Ellipse_173" data-name="Ellipse 173" cx="3.726" cy="3.726" r="3.726" fill="#0e809e"/>
      </g>
      <g id="Group_895" data-name="Group 895" transform="translate(208.94 0.001)">
        <circle id="Ellipse_174" data-name="Ellipse 174" cx="3.726" cy="3.726" r="3.726" fill="#0e809e"/>
      </g>
    </g>
  </g>
</svg>
