<svg id="Group_1282" data-name="Group 1282" xmlns="http://www.w3.org/2000/svg" width="39.745" height="43.163" viewBox="0 0 39.745 43.163">
  <g id="Group_964" data-name="Group 964" transform="translate(0)">
    <g id="Group_957" data-name="Group 957" transform="translate(0 0)">
      <g id="Group_956" data-name="Group 956">
        <g id="Group_955" data-name="Group 955">
          <circle id="Ellipse_187" data-name="Ellipse 187" cx="4.032" cy="4.032" r="4.032" fill="#7d758e"/>
        </g>
      </g>
    </g>
    <g id="Group_960" data-name="Group 960" transform="translate(15.839)">
      <g id="Group_959" data-name="Group 959">
        <g id="Group_958" data-name="Group 958">
          <path id="Path_6044" data-name="Path 6044" d="M237.717,172.915a4.032,4.032,0,1,1-4.032-4.033A4.032,4.032,0,0,1,237.717,172.915Z" transform="translate(-229.652 -168.882)" fill="#7d758e"/>
        </g>
      </g>
    </g>
    <g id="Group_963" data-name="Group 963" transform="translate(31.68)">
      <g id="Group_962" data-name="Group 962">
        <g id="Group_961" data-name="Group 961">
          <path id="Path_6045" data-name="Path 6045" d="M254.234,172.915a4.032,4.032,0,1,1-4.033-4.033A4.033,4.033,0,0,1,254.234,172.915Z" transform="translate(-246.169 -168.882)" fill="#7d758e"/>
        </g>
      </g>
    </g>
  </g>
  <g id="Group_974" data-name="Group 974" transform="translate(0 17.549)">
    <g id="Group_967" data-name="Group 967">
      <g id="Group_966" data-name="Group 966">
        <g id="Group_965" data-name="Group 965">
          <path id="Path_6046" data-name="Path 6046" d="M221.2,191.214a4.032,4.032,0,1,1-4.032-4.033A4.032,4.032,0,0,1,221.2,191.214Z" transform="translate(-213.136 -187.181)" fill="#7d758e"/>
        </g>
      </g>
    </g>
    <g id="Group_970" data-name="Group 970" transform="translate(15.84)">
      <g id="Group_969" data-name="Group 969">
        <g id="Group_968" data-name="Group 968">
          <path id="Path_6047" data-name="Path 6047" d="M237.717,191.214a4.032,4.032,0,1,1-4.032-4.033A4.032,4.032,0,0,1,237.717,191.214Z" transform="translate(-229.652 -187.181)" fill="#7d758e"/>
        </g>
      </g>
    </g>
    <g id="Group_973" data-name="Group 973" transform="translate(31.68)">
      <g id="Group_972" data-name="Group 972">
        <g id="Group_971" data-name="Group 971">
          <path id="Path_6048" data-name="Path 6048" d="M254.234,191.214a4.032,4.032,0,1,1-4.033-4.033A4.033,4.033,0,0,1,254.234,191.214Z" transform="translate(-246.169 -187.181)" fill="#7d758e"/>
        </g>
      </g>
    </g>
  </g>
  <g id="Group_984" data-name="Group 984" transform="translate(0 35.099)">
    <g id="Group_977" data-name="Group 977">
      <g id="Group_976" data-name="Group 976">
        <g id="Group_975" data-name="Group 975">
          <path id="Path_6049" data-name="Path 6049" d="M221.2,209.512a4.032,4.032,0,1,1-4.032-4.032A4.032,4.032,0,0,1,221.2,209.512Z" transform="translate(-213.136 -205.48)" fill="#7d758e"/>
        </g>
      </g>
    </g>
    <g id="Group_980" data-name="Group 980" transform="translate(15.84)">
      <g id="Group_979" data-name="Group 979">
        <g id="Group_978" data-name="Group 978">
          <path id="Path_6050" data-name="Path 6050" d="M237.717,209.512a4.032,4.032,0,1,1-4.032-4.032A4.032,4.032,0,0,1,237.717,209.512Z" transform="translate(-229.652 -205.48)" fill="#7d758e"/>
        </g>
      </g>
    </g>
    <g id="Group_983" data-name="Group 983" transform="translate(31.68)">
      <g id="Group_982" data-name="Group 982">
        <g id="Group_981" data-name="Group 981">
          <path id="Path_6051" data-name="Path 6051" d="M254.234,209.512a4.032,4.032,0,1,1-4.033-4.032A4.032,4.032,0,0,1,254.234,209.512Z" transform="translate(-246.169 -205.48)" fill="#7d758e"/>
        </g>
      </g>
    </g>
  </g>
</svg>
