<svg id="Group_1281" data-name="Group 1281" xmlns="http://www.w3.org/2000/svg" width="68.597" height="74.497" viewBox="0 0 68.597 74.497">
  <g id="Group_964" data-name="Group 964" transform="translate(0)">
    <g id="Group_957" data-name="Group 957" transform="translate(0 0.001)">
      <g id="Group_956" data-name="Group 956">
        <g id="Group_955" data-name="Group 955">
          <circle id="Ellipse_187" data-name="Ellipse 187" cx="6.959" cy="6.959" r="6.959" fill="#7d758e"/>
        </g>
      </g>
    </g>
    <g id="Group_960" data-name="Group 960" transform="translate(27.338)">
      <g id="Group_959" data-name="Group 959">
        <g id="Group_958" data-name="Group 958">
          <path id="Path_6044" data-name="Path 6044" d="M243.571,175.842a6.96,6.96,0,1,1-6.959-6.96A6.959,6.959,0,0,1,243.571,175.842Z" transform="translate(-229.652 -168.882)" fill="#7d758e"/>
        </g>
      </g>
    </g>
    <g id="Group_963" data-name="Group 963" transform="translate(54.678)">
      <g id="Group_962" data-name="Group 962">
        <g id="Group_961" data-name="Group 961">
          <path id="Path_6045" data-name="Path 6045" d="M260.088,175.842a6.96,6.96,0,1,1-6.96-6.96A6.961,6.961,0,0,1,260.088,175.842Z" transform="translate(-246.169 -168.882)" fill="#7d758e"/>
        </g>
      </g>
    </g>
  </g>
  <g id="Group_974" data-name="Group 974" transform="translate(0 30.29)">
    <g id="Group_967" data-name="Group 967">
      <g id="Group_966" data-name="Group 966">
        <g id="Group_965" data-name="Group 965">
          <path id="Path_6046" data-name="Path 6046" d="M227.053,194.141a6.959,6.959,0,1,1-6.959-6.96A6.959,6.959,0,0,1,227.053,194.141Z" transform="translate(-213.136 -187.181)" fill="#7d758e"/>
        </g>
      </g>
    </g>
    <g id="Group_970" data-name="Group 970" transform="translate(27.338)">
      <g id="Group_969" data-name="Group 969">
        <g id="Group_968" data-name="Group 968">
          <path id="Path_6047" data-name="Path 6047" d="M243.571,194.141a6.96,6.96,0,1,1-6.959-6.96A6.959,6.959,0,0,1,243.571,194.141Z" transform="translate(-229.652 -187.181)" fill="#7d758e"/>
        </g>
      </g>
    </g>
    <g id="Group_973" data-name="Group 973" transform="translate(54.678)">
      <g id="Group_972" data-name="Group 972">
        <g id="Group_971" data-name="Group 971">
          <path id="Path_6048" data-name="Path 6048" d="M260.088,194.141a6.96,6.96,0,1,1-6.96-6.96A6.961,6.961,0,0,1,260.088,194.141Z" transform="translate(-246.169 -187.181)" fill="#7d758e"/>
        </g>
      </g>
    </g>
  </g>
  <g id="Group_984" data-name="Group 984" transform="translate(0 60.579)">
    <g id="Group_977" data-name="Group 977">
      <g id="Group_976" data-name="Group 976">
        <g id="Group_975" data-name="Group 975">
          <path id="Path_6049" data-name="Path 6049" d="M227.053,212.439a6.959,6.959,0,1,1-6.959-6.959A6.958,6.958,0,0,1,227.053,212.439Z" transform="translate(-213.136 -205.48)" fill="#7d758e"/>
        </g>
      </g>
    </g>
    <g id="Group_980" data-name="Group 980" transform="translate(27.338)">
      <g id="Group_979" data-name="Group 979">
        <g id="Group_978" data-name="Group 978">
          <path id="Path_6050" data-name="Path 6050" d="M243.571,212.439a6.96,6.96,0,1,1-6.959-6.959A6.958,6.958,0,0,1,243.571,212.439Z" transform="translate(-229.652 -205.48)" fill="#7d758e"/>
        </g>
      </g>
    </g>
    <g id="Group_983" data-name="Group 983" transform="translate(54.678)">
      <g id="Group_982" data-name="Group 982">
        <g id="Group_981" data-name="Group 981">
          <path id="Path_6051" data-name="Path 6051" d="M260.088,212.439a6.96,6.96,0,1,1-6.96-6.959A6.96,6.96,0,0,1,260.088,212.439Z" transform="translate(-246.169 -205.48)" fill="#7d758e"/>
        </g>
      </g>
    </g>
  </g>
</svg>
