<svg xmlns="http://www.w3.org/2000/svg" width="942.807" height="653.476" viewBox="0 0 942.807 653.476">
  <path id="Path_6142" data-name="Path 6142" d="M394.075,201.03c70.344,14.863,145.059,9.074,214.4-15.578C789.763,121,938.9,204.52,976.383,257.07c43.506,61.064,50.69,141.407,30.551,214.84s-65.462,140.477-119.768,198.8C844.7,716.271,795.08,758.11,735.7,781.873c-58.019,23.216-121.6,27.8-183.727,30.937-79.909,4.032-161.188,6.077-237.3-12.622-62.063-15.229-125.818-52.881-131.226-112.3-4.6-50.648,35.164-100.5,29.626-151.024-7.767-70.752-96.723-105.806-126.121-170.574-34.3-75.524,9.226-158.739,68.754-176.571C217.757,171.131,316.117,184.557,394.075,201.03Z" transform="translate(-74.845 -162.043)" fill="#2e313b"/>
</svg>
